<?xml version="1.0" encoding="utf-8"?>
<!-- Generator: Adobe Illustrator 20.1.0, SVG Export Plug-In . SVG Version: 6.00 Build 0)  -->
<svg version="1.1" id="レイヤー_1" xmlns="http://www.w3.org/2000/svg" xmlns:xlink="http://www.w3.org/1999/xlink" x="0px"
	 y="0px" viewBox="0 0 1000 1000" style="enable-background:new 0 0 1000 1000;" xml:space="preserve">
<g>
	<path class="animation" stroke="#000" stroke-width="1" d="M33.8,170.6h15.8v35.9h41.1v-35.9h15.8v90.3H90.7v-40.7H49.6v40.7H33.8V170.6z"/>
	<path class="animation" stroke="#000" stroke-width="1" d="M178.2,246.4c0,1.8,0.2,3,0.7,3.8c0.5,0.8,1.4,1.1,2.7,1.1c0.4,0,0.9,0,1.5,0c0.6,0,1.3-0.1,2-0.3v10
		c-0.5,0.2-1.2,0.4-2,0.6c-0.8,0.2-1.6,0.4-2.5,0.6c-0.8,0.2-1.7,0.3-2.5,0.4c-0.8,0.1-1.6,0.1-2.1,0.1c-3,0-5.4-0.6-7.3-1.8
		c-1.9-1.2-3.2-3.2-3.8-6.2c-2.9,2.8-6.4,4.8-10.6,6.1s-8.2,1.9-12.1,1.9c-3,0-5.8-0.4-8.5-1.2c-2.7-0.8-5.1-2-7.1-3.5
		c-2.1-1.6-3.7-3.5-4.9-5.9c-1.2-2.4-1.8-5.2-1.8-8.4c0-4,0.7-7.3,2.2-9.9c1.5-2.5,3.4-4.5,5.8-5.9c2.4-1.4,5.1-2.5,8.1-3.1
		c3-0.6,6-1.1,9-1.5c2.6-0.5,5.1-0.9,7.5-1.1c2.4-0.2,4.4-0.6,6.3-1.1c1.8-0.5,3.2-1.3,4.3-2.3c1.1-1.1,1.6-2.6,1.6-4.7
		c0-1.9-0.4-3.4-1.3-4.6c-0.9-1.2-2-2.1-3.3-2.7c-1.3-0.6-2.8-1.1-4.4-1.3c-1.6-0.2-3.1-0.3-4.6-0.3c-4,0-7.4,0.8-10,2.5
		c-2.6,1.7-4.1,4.3-4.4,7.8h-14.4c0.3-4.2,1.3-7.7,3-10.5c1.8-2.8,4-5,6.8-6.7c2.7-1.7,5.8-2.9,9.3-3.5c3.5-0.7,7-1,10.6-1
		c3.2,0,6.4,0.3,9.5,1c3.1,0.7,5.9,1.8,8.4,3.3c2.5,1.5,4.5,3.5,6,5.9c1.5,2.4,2.3,5.3,2.3,8.8V246.4z M163.8,228.2
		c-2.2,1.4-4.9,2.3-8.1,2.6c-3.2,0.3-6.4,0.7-9.6,1.3c-1.5,0.3-3,0.6-4.4,1.1c-1.4,0.5-2.7,1.1-3.8,1.9c-1.1,0.8-2,1.9-2.6,3.2
		c-0.6,1.3-0.9,2.9-0.9,4.7c0,1.6,0.5,3,1.4,4c0.9,1.1,2,2,3.4,2.6c1.3,0.6,2.7,1.1,4.3,1.3c1.6,0.3,3,0.4,4.2,0.4
		c1.6,0,3.3-0.2,5.2-0.6c1.9-0.4,3.6-1.1,5.2-2.1c1.6-1,3-2.3,4.1-3.9c1.1-1.6,1.6-3.5,1.6-5.8V228.2z"/>
	<path class="animation" stroke="#000" stroke-width="1" d="M194.2,195.5h13.7v8.9h0.3c2-3.8,4.8-6.5,8.5-8.2c3.6-1.6,7.5-2.5,11.8-2.5c5.1,0,9.6,0.9,13.5,2.7c3.8,1.8,7,4.3,9.5,7.5
		c2.5,3.2,4.4,6.9,5.7,11.1c1.3,4.2,1.9,8.7,1.9,13.5c0,4.4-0.6,8.6-1.7,12.8c-1.1,4.1-2.9,7.8-5.2,10.9c-2.3,3.2-5.2,5.7-8.8,7.6
		c-3.5,1.9-7.7,2.8-12.5,2.8c-2.1,0-4.2-0.2-6.3-0.6c-2.1-0.4-4.1-1-6.1-1.8c-1.9-0.8-3.7-1.9-5.4-3.2c-1.6-1.3-3-2.8-4.1-4.6h-0.3
		v32.6h-14.4V195.5z M244.5,228.3c0-3-0.4-5.8-1.1-8.6c-0.8-2.8-1.9-5.2-3.4-7.4c-1.5-2.1-3.4-3.9-5.7-5.2c-2.3-1.3-4.9-2-7.8-2
		c-6.1,0-10.6,2.1-13.7,6.3c-3.1,4.2-4.6,9.8-4.6,16.8c0,3.3,0.4,6.3,1.2,9.2c0.8,2.8,2,5.2,3.6,7.3c1.6,2,3.5,3.6,5.8,4.8
		c2.2,1.2,4.8,1.8,7.8,1.8c3.3,0,6.1-0.7,8.3-2c2.3-1.3,4.2-3.1,5.6-5.2c1.5-2.1,2.5-4.6,3.2-7.3C244.2,234,244.5,231.2,244.5,228.3
		z"/>
	<path class="animation" stroke="#000" stroke-width="1" d="M271.4,195.5h13.7v8.9h0.3c2-3.8,4.8-6.5,8.5-8.2c3.6-1.6,7.5-2.5,11.8-2.5c5.1,0,9.6,0.9,13.5,2.7c3.8,1.8,7,4.3,9.5,7.5
		c2.5,3.2,4.4,6.9,5.7,11.1c1.3,4.2,1.9,8.7,1.9,13.5c0,4.4-0.6,8.6-1.7,12.8c-1.1,4.1-2.9,7.8-5.2,10.9c-2.3,3.2-5.2,5.7-8.8,7.6
		c-3.5,1.9-7.7,2.8-12.5,2.8c-2.1,0-4.2-0.2-6.3-0.6c-2.1-0.4-4.1-1-6.1-1.8c-1.9-0.8-3.7-1.9-5.4-3.2c-1.6-1.3-3-2.8-4.1-4.6h-0.3
		v32.6h-14.4V195.5z M321.8,228.3c0-3-0.4-5.8-1.1-8.6c-0.8-2.8-1.9-5.2-3.4-7.4c-1.5-2.1-3.4-3.9-5.7-5.2c-2.3-1.3-4.9-2-7.8-2
		c-6.1,0-10.6,2.1-13.7,6.3c-3.1,4.2-4.6,9.8-4.6,16.8c0,3.3,0.4,6.3,1.2,9.2c0.8,2.8,2,5.2,3.6,7.3c1.6,2,3.5,3.6,5.8,4.8
		c2.2,1.2,4.8,1.8,7.8,1.8c3.3,0,6.1-0.7,8.3-2c2.3-1.3,4.2-3.1,5.6-5.2c1.5-2.1,2.5-4.6,3.2-7.3C321.4,234,321.8,231.2,321.8,228.3
		z"/>
	<path class="animation" stroke="#000" stroke-width="1" d="M341.1,195.5h15.8l17.1,48.8h0.3l16.6-48.8h15l-25.4,68.9c-1.2,2.9-2.3,5.8-3.5,8.5c-1.1,2.7-2.5,5.1-4.2,7.1
		c-1.6,2.1-3.7,3.7-6.1,4.9c-2.4,1.2-5.6,1.8-9.4,1.8c-3.4,0-6.7-0.3-10-0.8v-12.1c1.2,0.2,2.3,0.4,3.4,0.6c1.1,0.2,2.2,0.3,3.4,0.3
		c1.7,0,3.1-0.2,4.2-0.6c1.1-0.4,2-1,2.7-1.8c0.7-0.8,1.3-1.8,1.8-2.8c0.5-1.1,1-2.4,1.4-3.8l1.6-5.1L341.1,195.5z"/>
	<path class="animation" stroke="#000" stroke-width="1" d="M34.2,391.9h43.9c8.1,0,14.6,1.9,19.5,5.6c4.9,3.7,7.3,9.3,7.3,16.8c0,4.6-1.1,8.5-3.4,11.7c-2.2,3.2-5.4,5.8-9.5,7.5v0.3
		c5.6,1.2,9.8,3.8,12.6,7.9c2.9,4.1,4.3,9.2,4.3,15.4c0,3.5-0.6,6.9-1.9,9.9c-1.3,3.1-3.2,5.7-5.9,8c-2.7,2.2-6.2,4-10.4,5.3
		c-4.2,1.3-9.2,2-15,2H34.2V391.9z M50,429.7h25.8c3.8,0,7-1.1,9.5-3.2c2.5-2.1,3.8-5.2,3.8-9.3c0-4.6-1.1-7.8-3.4-9.6
		c-2.3-1.9-5.6-2.8-9.9-2.8H50V429.7z M50,469.3H78c4.8,0,8.5-1.2,11.2-3.7c2.7-2.5,4-6,4-10.6c0-4.5-1.3-7.9-4-10.3
		c-2.7-2.4-6.4-3.6-11.2-3.6H50V469.3z"/>
	<path class="animation" stroke="#000" stroke-width="1" d="M121.6,391.9H136v13.7h-14.4V391.9z M121.6,416.8H136v65.4h-14.4V416.8z"/>
	<path class="animation" stroke="#000" stroke-width="1" d="M151.7,416.8h13.5v12.6h0.3c0.4-1.8,1.2-3.5,2.5-5.2c1.2-1.7,2.7-3.2,4.4-4.6c1.7-1.4,3.6-2.5,5.8-3.4
		c2.1-0.8,4.3-1.3,6.4-1.3c1.7,0,2.8,0,3.5,0.1c0.6,0.1,1.3,0.2,2,0.3v13.9c-1-0.2-2-0.3-3.1-0.4c-1.1-0.1-2.1-0.2-3.1-0.2
		c-2.4,0-4.7,0.5-6.9,1.5c-2.1,1-4,2.4-5.6,4.3c-1.6,1.9-2.9,4.2-3.8,7c-0.9,2.8-1.4,6-1.4,9.6v31.1h-14.4V416.8z"/>
	<path class="animation" stroke="#000" stroke-width="1" d="M189.6,416.8h10.9v-19.6h14.4v19.6h13v10.7h-13v34.9c0,1.5,0.1,2.8,0.2,3.9c0.1,1.1,0.4,2,0.9,2.8c0.5,0.8,1.2,1.3,2.1,1.7
		c0.9,0.4,2.2,0.6,3.8,0.6c1,0,2,0,3-0.1c1,0,2-0.2,3-0.4v11.1c-1.6,0.2-3.2,0.3-4.7,0.5c-1.5,0.2-3.1,0.3-4.7,0.3
		c-3.8,0-6.9-0.4-9.2-1.1c-2.3-0.7-4.1-1.8-5.4-3.2c-1.3-1.4-2.2-3.1-2.7-5.2c-0.5-2.1-0.7-4.5-0.8-7.2v-38.6h-10.9V416.8z"/>
	<path class="animation" stroke="#000" stroke-width="1" d="M238.3,391.9h14.4v33.5h0.3c1.8-2.9,4.4-5.4,7.9-7.4c3.5-2,7.4-3,11.7-3c7.2,0,12.8,1.9,16.9,5.6c4.1,3.7,6.2,9.3,6.2,16.7
		v44.9h-14.4v-41.1c-0.2-5.1-1.3-8.9-3.3-11.2c-2-2.3-5.2-3.5-9.5-3.5c-2.4,0-4.6,0.4-6.6,1.3c-1.9,0.9-3.6,2.1-4.9,3.7
		c-1.3,1.6-2.4,3.4-3.2,5.5c-0.8,2.1-1.1,4.3-1.1,6.7v38.6h-14.4V391.9z"/>
	<path class="animation" stroke="#000" stroke-width="1" d="M372.5,482.2h-13.7v-8.9h-0.3c-1.9,3.8-4.8,6.5-8.5,8.2c-3.7,1.6-7.6,2.5-11.8,2.5c-5.1,0-9.6-0.9-13.5-2.7
		c-3.8-1.8-7-4.3-9.5-7.4c-2.5-3.1-4.4-6.8-5.7-11.1c-1.3-4.3-1.9-8.8-1.9-13.7c0-5.9,0.8-11,2.4-15.3c1.6-4.3,3.7-7.8,6.4-10.6
		c2.7-2.8,5.7-4.8,9.1-6.1c3.4-1.3,6.9-2,10.4-2c2,0,4.1,0.2,6.2,0.6c2.1,0.4,4.1,1,6.1,1.8c1.9,0.8,3.7,1.9,5.4,3.2
		c1.6,1.3,3,2.8,4.1,4.6h0.3v-33.4h14.4V482.2z M322.1,450.2c0,2.8,0.4,5.5,1.1,8.2c0.7,2.7,1.8,5.1,3.3,7.2
		c1.5,2.1,3.4,3.8,5.6,5.1c2.3,1.3,5,1.9,8.1,1.9c3.2,0,6-0.7,8.3-2c2.3-1.3,4.2-3.1,5.7-5.3c1.5-2.2,2.6-4.7,3.3-7.4
		c0.7-2.7,1.1-5.5,1.1-8.4c0-7.2-1.6-12.9-4.9-16.9c-3.2-4-7.7-6.1-13.2-6.1c-3.4,0-6.2,0.7-8.5,2.1c-2.3,1.4-4.2,3.2-5.7,5.4
		c-1.5,2.2-2.5,4.8-3.2,7.6C322.4,444.4,322.1,447.3,322.1,450.2z"/>
	<path class="animation" stroke="#000" stroke-width="1" d="M442.9,467.7c0,1.8,0.2,3,0.7,3.8c0.5,0.8,1.4,1.1,2.7,1.1c0.4,0,0.9,0,1.5,0c0.6,0,1.3-0.1,2-0.3v10
		c-0.5,0.2-1.2,0.4-2,0.6c-0.8,0.2-1.6,0.4-2.5,0.6c-0.8,0.2-1.7,0.3-2.5,0.4c-0.8,0.1-1.6,0.1-2.1,0.1c-3,0-5.4-0.6-7.3-1.8
		c-1.9-1.2-3.2-3.2-3.8-6.2c-2.9,2.8-6.4,4.8-10.6,6.1s-8.2,1.9-12.1,1.9c-3,0-5.8-0.4-8.5-1.2c-2.7-0.8-5.1-2-7.1-3.5
		c-2.1-1.6-3.7-3.5-4.9-5.9c-1.2-2.4-1.8-5.2-1.8-8.4c0-4,0.7-7.3,2.2-9.9c1.5-2.5,3.4-4.5,5.8-5.9c2.4-1.4,5.1-2.5,8.1-3.1
		c3-0.6,6-1.1,9-1.5c2.6-0.5,5.1-0.9,7.5-1.1c2.4-0.2,4.4-0.6,6.3-1.1c1.8-0.5,3.2-1.3,4.3-2.3c1.1-1.1,1.6-2.6,1.6-4.7
		c0-1.9-0.4-3.4-1.3-4.6c-0.9-1.2-2-2.1-3.3-2.7c-1.3-0.6-2.8-1.1-4.4-1.3c-1.6-0.2-3.1-0.3-4.6-0.3c-4,0-7.4,0.8-10,2.5
		c-2.6,1.7-4.1,4.3-4.4,7.8H387c0.3-4.2,1.3-7.7,3-10.5c1.8-2.8,4-5,6.8-6.7c2.7-1.7,5.8-2.9,9.3-3.5c3.5-0.7,7-1,10.6-1
		c3.2,0,6.4,0.3,9.5,1c3.1,0.7,5.9,1.8,8.4,3.3c2.5,1.5,4.5,3.5,6,5.9c1.5,2.4,2.3,5.3,2.3,8.8V467.7z M428.5,449.5
		c-2.2,1.4-4.9,2.3-8.1,2.6c-3.2,0.3-6.4,0.7-9.6,1.3c-1.5,0.3-3,0.6-4.4,1.1c-1.4,0.5-2.7,1.1-3.8,1.9c-1.1,0.8-2,1.9-2.6,3.2
		c-0.6,1.3-0.9,2.9-0.9,4.7c0,1.6,0.5,3,1.4,4c0.9,1.1,2,2,3.4,2.6c1.3,0.6,2.7,1.1,4.3,1.3c1.6,0.3,3,0.4,4.2,0.4
		c1.6,0,3.3-0.2,5.2-0.6c1.9-0.4,3.6-1.1,5.2-2.1c1.6-1,3-2.3,4.1-3.9c1.1-1.6,1.6-3.5,1.6-5.8V449.5z"/>
	<path class="animation" stroke="#000" stroke-width="1" d="M451.2,416.8H467l17.1,48.8h0.3l16.6-48.8h15l-25.4,68.9c-1.2,2.9-2.3,5.8-3.5,8.5c-1.1,2.7-2.5,5.1-4.2,7.1
		c-1.6,2.1-3.7,3.7-6.1,4.9c-2.4,1.2-5.6,1.8-9.4,1.8c-3.4,0-6.7-0.3-10-0.8v-12.1c1.2,0.2,2.3,0.4,3.4,0.6c1.1,0.2,2.2,0.3,3.4,0.3
		c1.7,0,3.1-0.2,4.2-0.6c1.1-0.4,2-1,2.7-1.8c0.7-0.8,1.3-1.8,1.8-2.8c0.5-1.1,1-2.4,1.4-3.8l1.6-5.1L451.2,416.8z"/>
	<path class="animation" stroke="#000" stroke-width="1" d="M34.2,613.2H74c6.4,0,11.6,0.9,15.7,2.8c4,1.9,7.2,4.2,9.4,7c2.2,2.8,3.7,5.8,4.5,9.1c0.8,3.3,1.2,6.3,1.2,9.1
		s-0.4,5.8-1.2,9c-0.8,3.2-2.3,6.3-4.5,9c-2.2,2.8-5.3,5.1-9.4,6.9c-4,1.8-9.3,2.7-15.7,2.7H50v34.6H34.2V613.2z M50,655.9h23.1
		c1.8,0,3.6-0.3,5.4-0.8c1.9-0.5,3.6-1.3,5.1-2.5c1.6-1.1,2.8-2.7,3.8-4.6c1-1.9,1.5-4.3,1.5-7.1c0-2.9-0.4-5.4-1.3-7.3
		c-0.8-1.9-2-3.5-3.4-4.6c-1.4-1.1-3.1-1.9-4.9-2.3c-1.9-0.4-3.8-0.6-5.9-0.6H50V655.9z"/>
	<path class="animation" stroke="#000" stroke-width="1" d="M116.5,638.1h13.5v12.6h0.3c0.4-1.8,1.2-3.5,2.5-5.2c1.2-1.7,2.7-3.2,4.4-4.6c1.7-1.4,3.6-2.5,5.8-3.4
		c2.1-0.8,4.3-1.3,6.4-1.3c1.7,0,2.8,0,3.5,0.1c0.6,0.1,1.3,0.2,2,0.3v13.9c-1-0.2-2-0.3-3.1-0.4c-1.1-0.1-2.1-0.2-3.1-0.2
		c-2.4,0-4.7,0.5-6.9,1.5c-2.1,1-4,2.4-5.6,4.3c-1.6,1.9-2.9,4.2-3.8,7c-0.9,2.8-1.4,6-1.4,9.6v31.1h-14.4V638.1z"/>
	<path class="animation" stroke="#000" stroke-width="1" d="M191,705.3c-5.2,0-9.9-0.9-14-2.6c-4.1-1.7-7.5-4.1-10.4-7.1c-2.8-3-5-6.7-6.4-10.9c-1.5-4.2-2.2-8.9-2.2-13.9
		c0-5,0.7-9.6,2.2-13.8c1.5-4.2,3.6-7.8,6.4-10.9c2.8-3,6.3-5.4,10.4-7.1c4.1-1.7,8.7-2.6,14-2.6c5.2,0,9.9,0.9,14,2.6
		c4.1,1.7,7.5,4.1,10.4,7.1c2.8,3,5,6.7,6.4,10.9c1.5,4.2,2.2,8.8,2.2,13.8c0,5.1-0.7,9.7-2.2,13.9c-1.5,4.2-3.6,7.8-6.4,10.9
		c-2.8,3-6.3,5.4-10.4,7.1C200.9,704.4,196.2,705.3,191,705.3z M191,693.9c3.2,0,6-0.7,8.3-2c2.4-1.3,4.3-3.1,5.8-5.3
		c1.5-2.2,2.6-4.7,3.4-7.4c0.7-2.7,1.1-5.5,1.1-8.4c0-2.8-0.4-5.6-1.1-8.3c-0.7-2.8-1.8-5.2-3.4-7.4c-1.5-2.2-3.5-3.9-5.8-5.2
		c-2.4-1.3-5.1-2-8.3-2c-3.2,0-6,0.7-8.3,2c-2.4,1.3-4.3,3.1-5.8,5.2c-1.5,2.1-2.6,4.6-3.4,7.4c-0.7,2.8-1.1,5.6-1.1,8.3
		c0,2.9,0.4,5.7,1.1,8.4c0.7,2.7,1.8,5.2,3.4,7.4c1.5,2.2,3.5,4,5.8,5.3C185,693.2,187.8,693.9,191,693.9z"/>
	<path class="animation" stroke="#000" stroke-width="1" d="M229.6,638.1h10.7v-5.4c0-4.1,0.5-7.5,1.5-10.1c1-2.6,2.4-4.6,4-5.9c1.7-1.4,3.6-2.3,5.8-2.8c2.1-0.5,4.4-0.7,6.8-0.7
		c4.6,0,8,0.3,10.1,0.9v11.3c-0.9-0.3-1.9-0.4-3-0.6c-1.1-0.1-2.3-0.2-3.7-0.2c-1.9,0-3.6,0.5-5,1.4c-1.4,0.9-2.1,2.7-2.1,5.4v6.7
		H267v10.7h-12.3v54.6h-14.4v-54.6h-10.7V638.1z"/>
	<path class="animation" stroke="#000" stroke-width="1" d="M277,686.4h17.6v17.1H277V686.4z"/>
	<path class="animation" stroke="#000" stroke-width="1" d="M339.6,613.2h73.1v13.7H384v76.6h-15.8v-76.6h-28.6V613.2z"/>
	<path class="animation" stroke="#000" stroke-width="1" d="M475.9,689c0,1.8,0.2,3,0.7,3.8c0.5,0.8,1.4,1.1,2.7,1.1c0.4,0,0.9,0,1.5,0c0.6,0,1.3-0.1,2-0.3v10c-0.5,0.2-1.2,0.4-2,0.6
		c-0.8,0.2-1.6,0.4-2.5,0.6c-0.8,0.2-1.7,0.3-2.5,0.4c-0.8,0.1-1.6,0.1-2.1,0.1c-3,0-5.4-0.6-7.3-1.8c-1.9-1.2-3.2-3.2-3.8-6.2
		c-2.9,2.8-6.4,4.8-10.6,6.1c-4.2,1.3-8.2,1.9-12.1,1.9c-3,0-5.8-0.4-8.5-1.2c-2.7-0.8-5.1-2-7.1-3.5c-2.1-1.6-3.7-3.5-4.9-5.9
		c-1.2-2.4-1.8-5.2-1.8-8.4c0-4,0.7-7.3,2.2-9.9c1.5-2.5,3.4-4.5,5.8-5.9c2.4-1.4,5.1-2.5,8.1-3.1c3-0.6,6-1.1,9-1.5
		c2.6-0.5,5.1-0.9,7.5-1.1c2.4-0.2,4.4-0.6,6.3-1.1c1.8-0.5,3.2-1.3,4.3-2.3c1.1-1.1,1.6-2.6,1.6-4.7c0-1.9-0.4-3.4-1.3-4.6
		c-0.9-1.2-2-2.1-3.3-2.7c-1.3-0.6-2.8-1.1-4.4-1.3c-1.6-0.2-3.1-0.3-4.6-0.3c-4,0-7.4,0.8-10,2.5c-2.6,1.7-4.1,4.3-4.4,7.8H420
		c0.3-4.2,1.3-7.7,3-10.5c1.8-2.8,4-5,6.8-6.7c2.7-1.7,5.8-2.9,9.3-3.5c3.5-0.7,7-1,10.6-1c3.2,0,6.4,0.3,9.5,1
		c3.1,0.7,5.9,1.8,8.4,3.3c2.5,1.5,4.5,3.5,6,5.9c1.5,2.4,2.3,5.3,2.3,8.8V689z M461.5,670.7c-2.2,1.4-4.9,2.3-8.1,2.6
		c-3.2,0.3-6.4,0.7-9.6,1.3c-1.5,0.3-3,0.6-4.4,1.1c-1.4,0.5-2.7,1.1-3.8,1.9c-1.1,0.8-2,1.9-2.6,3.2c-0.6,1.3-0.9,2.9-0.9,4.7
		c0,1.6,0.5,3,1.4,4c0.9,1.1,2,2,3.4,2.6c1.3,0.6,2.7,1.1,4.3,1.3c1.6,0.3,3,0.4,4.2,0.4c1.6,0,3.3-0.2,5.2-0.6
		c1.9-0.4,3.6-1.1,5.2-2.2c1.6-1,3-2.3,4.1-3.9c1.1-1.6,1.6-3.5,1.6-5.8V670.7z"/>
	<path class="animation" stroke="#000" stroke-width="1" d="M491.8,613.2h14.4v51.3l26-26.4H550l-25,24l27.4,41.3h-17.6l-20-31.7l-8.6,8.3v23.4h-14.4V613.2z"/>
	<path class="animation" stroke="#000" stroke-width="1" d="M570.6,674.5c0,2.5,0.4,5,1.1,7.3c0.7,2.4,1.8,4.4,3.2,6.2c1.4,1.8,3.2,3.2,5.4,4.2c2.2,1.1,4.8,1.6,7.8,1.6
		c4.2,0,7.6-0.9,10.2-2.7c2.6-1.8,4.5-4.5,5.8-8.2h13.7c-0.8,3.5-2.1,6.7-3.9,9.5c-1.9,2.8-4.1,5.1-6.7,7c-2.6,1.9-5.5,3.3-8.8,4.3
		c-3.2,1-6.6,1.5-10.2,1.5c-5.1,0-9.7-0.8-13.7-2.5c-4-1.7-7.3-4-10.1-7.1c-2.7-3-4.8-6.7-6.2-10.9c-1.4-4.2-2.1-8.9-2.1-13.9
		c0-4.6,0.7-9,2.2-13.2c1.5-4.2,3.6-7.8,6.3-11c2.7-3.2,6-5.7,9.9-7.5c3.9-1.9,8.3-2.8,13.2-2.8c5.1,0,9.8,1.1,13.8,3.2
		c4.1,2.2,7.5,5,10.2,8.5c2.7,3.5,4.7,7.6,5.9,12.2c1.2,4.6,1.5,9.3,0.9,14.2H570.6z M604.2,665.1c-0.2-2.3-0.7-4.5-1.5-6.6
		c-0.8-2.1-1.9-3.9-3.3-5.5c-1.4-1.6-3.1-2.8-5.1-3.8c-2-1-4.2-1.5-6.6-1.5c-2.5,0-4.8,0.4-6.9,1.3c-2.1,0.9-3.8,2.1-5.3,3.7
		c-1.5,1.6-2.7,3.4-3.5,5.5c-0.9,2.1-1.4,4.4-1.5,6.8H604.2z"/>
	<path class="animation" stroke="#000" stroke-width="1" d="M622.4,638.1h15.8l17.1,48.8h0.3l16.6-48.8h15L661.8,707c-1.2,2.9-2.3,5.8-3.5,8.5c-1.1,2.7-2.5,5.1-4.2,7.1
		c-1.6,2.1-3.7,3.7-6.1,4.9c-2.4,1.2-5.6,1.8-9.4,1.8c-3.4,0-6.7-0.3-10-0.8v-12.1c1.2,0.2,2.3,0.4,3.4,0.6c1.1,0.2,2.2,0.3,3.4,0.3
		c1.7,0,3.1-0.2,4.2-0.6c1.1-0.4,2-1,2.7-1.8c0.7-0.8,1.3-1.8,1.8-2.8c0.5-1.1,1-2.4,1.4-3.8l1.6-5.1L622.4,638.1z"/>
	<path class="animation" stroke="#000" stroke-width="1" d="M750,689c0,1.8,0.2,3,0.7,3.8c0.5,0.8,1.4,1.1,2.7,1.1c0.4,0,0.9,0,1.5,0c0.6,0,1.3-0.1,2-0.3v10c-0.5,0.2-1.2,0.4-2,0.6
		c-0.8,0.2-1.6,0.4-2.5,0.6c-0.8,0.2-1.7,0.3-2.5,0.4c-0.8,0.1-1.6,0.1-2.1,0.1c-3,0-5.4-0.6-7.3-1.8c-1.9-1.2-3.2-3.2-3.8-6.2
		c-2.9,2.8-6.4,4.8-10.6,6.1c-4.2,1.3-8.2,1.9-12.1,1.9c-3,0-5.8-0.4-8.5-1.2c-2.7-0.8-5.1-2-7.1-3.5c-2.1-1.6-3.7-3.5-4.9-5.9
		c-1.2-2.4-1.8-5.2-1.8-8.4c0-4,0.7-7.3,2.2-9.9c1.5-2.5,3.4-4.5,5.8-5.9c2.4-1.4,5.1-2.5,8.1-3.1c3-0.6,6-1.1,9-1.5
		c2.6-0.5,5.1-0.9,7.5-1.1c2.4-0.2,4.4-0.6,6.3-1.1c1.8-0.5,3.2-1.3,4.3-2.3c1.1-1.1,1.6-2.6,1.6-4.7c0-1.9-0.4-3.4-1.3-4.6
		c-0.9-1.2-2-2.1-3.3-2.7c-1.3-0.6-2.8-1.1-4.4-1.3c-1.6-0.2-3.1-0.3-4.6-0.3c-4,0-7.4,0.8-10,2.5c-2.6,1.7-4.1,4.3-4.4,7.8h-14.4
		c0.3-4.2,1.3-7.7,3-10.5c1.8-2.8,4-5,6.8-6.7c2.7-1.7,5.8-2.9,9.3-3.5c3.5-0.7,7-1,10.6-1c3.2,0,6.4,0.3,9.5,1
		c3.1,0.7,5.9,1.8,8.4,3.3c2.5,1.5,4.5,3.5,6,5.9c1.5,2.4,2.3,5.3,2.3,8.8V689z M735.6,670.7c-2.2,1.4-4.9,2.3-8.1,2.6
		c-3.2,0.3-6.4,0.7-9.6,1.3c-1.5,0.3-3,0.6-4.4,1.1c-1.4,0.5-2.7,1.1-3.8,1.9c-1.1,0.8-2,1.9-2.6,3.2c-0.6,1.3-0.9,2.9-0.9,4.7
		c0,1.6,0.5,3,1.4,4c0.9,1.1,2,2,3.4,2.6c1.3,0.6,2.7,1.1,4.3,1.3c1.6,0.3,3,0.4,4.2,0.4c1.6,0,3.3-0.2,5.2-0.6
		c1.9-0.4,3.6-1.1,5.2-2.2c1.6-1,3-2.3,4.1-3.9c1.1-1.6,1.6-3.5,1.6-5.8V670.7z"/>
	<path class="animation" stroke="#000" stroke-width="1" d="M765.6,638.1h13.7v9.1h0.4c1.1-1.6,2.3-3.1,3.5-4.4c1.3-1.3,2.7-2.5,4.2-3.4c1.6-0.9,3.4-1.7,5.4-2.2c2-0.5,4.3-0.8,7-0.8
		c4,0,7.7,0.9,11.1,2.7c3.4,1.8,5.8,4.5,7.3,8.2c2.4-3.4,5.3-6,8.5-8c3.2-1.9,7.2-2.9,12-2.9c6.9,0,12.3,1.7,16.1,5.1
		c3.8,3.4,5.8,9,5.8,16.9v45.1H846v-38.2c0-2.6-0.1-5-0.3-7.1c-0.2-2.2-0.7-4-1.5-5.6c-0.8-1.6-2-2.8-3.6-3.6
		c-1.6-0.8-3.8-1.3-6.6-1.3c-4.9,0-8.4,1.5-10.6,4.6c-2.2,3-3.3,7.3-3.3,12.9v38.3h-14.4v-42c0-4.6-0.8-8-2.5-10.3
		c-1.6-2.3-4.7-3.5-9-3.5c-1.9,0-3.6,0.4-5.4,1.1c-1.7,0.8-3.2,1.9-4.6,3.3c-1.3,1.4-2.4,3.2-3.2,5.3c-0.8,2.1-1.2,4.5-1.2,7.2v38.8
		h-14.4V638.1z"/>
	<path class="animation" stroke="#000" stroke-width="1" d="M930.4,689c0,1.8,0.2,3,0.7,3.8c0.5,0.8,1.4,1.1,2.7,1.1c0.4,0,0.9,0,1.5,0c0.6,0,1.3-0.1,2-0.3v10c-0.5,0.2-1.2,0.4-2,0.6
		c-0.8,0.2-1.6,0.4-2.5,0.6c-0.8,0.2-1.7,0.3-2.5,0.4c-0.8,0.1-1.6,0.1-2.1,0.1c-3,0-5.4-0.6-7.3-1.8c-1.9-1.2-3.2-3.2-3.8-6.2
		c-2.9,2.8-6.4,4.8-10.6,6.1c-4.2,1.3-8.2,1.9-12.1,1.9c-3,0-5.8-0.4-8.5-1.2c-2.7-0.8-5.1-2-7.1-3.5c-2.1-1.6-3.7-3.5-4.9-5.9
		c-1.2-2.4-1.8-5.2-1.8-8.4c0-4,0.7-7.3,2.2-9.9c1.5-2.5,3.4-4.5,5.8-5.9c2.4-1.4,5.1-2.5,8.1-3.1c3-0.6,6-1.1,9-1.5
		c2.6-0.5,5.1-0.9,7.5-1.1c2.4-0.2,4.4-0.6,6.3-1.1c1.8-0.5,3.2-1.3,4.3-2.3c1.1-1.1,1.6-2.6,1.6-4.7c0-1.9-0.4-3.4-1.3-4.6
		c-0.9-1.2-2-2.1-3.3-2.7c-1.3-0.6-2.8-1.1-4.4-1.3c-1.6-0.2-3.1-0.3-4.6-0.3c-4,0-7.4,0.8-10,2.5c-2.6,1.7-4.1,4.3-4.4,7.8h-14.4
		c0.3-4.2,1.3-7.7,3-10.5c1.8-2.8,4-5,6.8-6.7c2.7-1.7,5.8-2.9,9.3-3.5c3.5-0.7,7-1,10.6-1c3.2,0,6.4,0.3,9.5,1
		c3.1,0.7,5.9,1.8,8.4,3.3c2.5,1.5,4.5,3.5,6,5.9c1.5,2.4,2.3,5.3,2.3,8.8V689z M915.9,670.7c-2.2,1.4-4.9,2.3-8.1,2.6
		c-3.2,0.3-6.4,0.7-9.6,1.3c-1.5,0.3-3,0.6-4.4,1.1c-1.4,0.5-2.7,1.1-3.8,1.9c-1.1,0.8-2,1.9-2.6,3.2c-0.6,1.3-0.9,2.9-0.9,4.7
		c0,1.6,0.5,3,1.4,4c0.9,1.1,2,2,3.4,2.6c1.3,0.6,2.7,1.1,4.3,1.3c1.6,0.3,3,0.4,4.2,0.4c1.6,0,3.3-0.2,5.2-0.6
		c1.9-0.4,3.6-1.1,5.2-2.2c1.6-1,3-2.3,4.1-3.9c1.1-1.6,1.6-3.5,1.6-5.8V670.7z"/>
</g>
</svg>
